<?xml version="1.0" encoding="utf-8"?>
<!-- Generator: Adobe Illustrator 17.0.0, SVG Export Plug-In . SVG Version: 6.00 Build 0)  -->
<!DOCTYPE svg PUBLIC "-//W3C//DTD SVG 1.1//EN" "http://www.w3.org/Graphics/SVG/1.1/DTD/svg11.dtd">
<svg version="1.1" id="图层_1" xmlns="http://www.w3.org/2000/svg" xmlns:xlink="http://www.w3.org/1999/xlink" x="0px" y="0px"
	 width="750px" height="700px" viewBox="0 0 750 700" style="enable-background:new 0 0 750 700;" xml:space="preserve">
<style type="text/css">
	.st0{fill:#B0B0B0;}
	.st1{fill:#A00505;}
	.st2{fill:#FFFFFF;}
	.st3{fill:#4D4D4D;}
	.st4{fill:none;stroke:#A00505;stroke-width:3;stroke-miterlimit:10;}
	.st5{fill:#757575;}
	.st6{font-family:'PingFangSC-Light';}
	.st7{font-size:22.6798;}
	.st8{fill:#EBEBEB;}
	.st9{display:none;fill:#FFFFFF;stroke:#000000;stroke-width:0.25;stroke-miterlimit:10;}
	.st10{fill:none;stroke:#000000;stroke-miterlimit:10;}
</style>
<polygon class="st0" points="509.6,84.4 509.6,67.6 524.1,59.3 538.6,67.6 538.6,84.4 524.1,92.8 "/>
<path class="st1" d="M524.1,60.5l13.4,7.8v15.5l-13.4,7.8l-13.4-7.8V68.3L524.1,60.5 M524.1,57.9l-15.6,9v18.1l15.6,9l15.6-9V67
	L524.1,57.9L524.1,57.9z"/>
<polygon class="st0" points="134.7,411.3 134.7,394.5 149.2,386.2 163.7,394.5 163.7,411.3 149.2,419.7 "/>
<path class="st1" d="M149.2,387.4l13.4,7.8v15.5l-13.4,7.8l-13.4-7.8v-15.5L149.2,387.4 M149.2,384.8l-15.6,9V412l15.6,9l15.6-9
	v-18.1L149.2,384.8L149.2,384.8z"/>
<polygon class="st0" points="166,411.3 166,394.5 180.5,386.2 195,394.5 195,411.3 180.5,419.7 "/>
<path class="st1" d="M180.5,387.4l13.4,7.8v15.5l-13.4,7.8l-13.4-7.8v-15.5L180.5,387.4 M180.5,384.8l-15.6,9V412l15.6,9l15.6-9
	v-18.1L180.5,384.8L180.5,384.8z"/>
<polygon class="st0" points="367.9,329.1 367.9,311 383.5,302 399.2,311 399.2,329.1 383.5,338 "/>
<path class="st2" d="M383.5,302.1l15.5,9v18l-15.5,9l-15.5-9v-18L383.5,302.1 M383.5,302l-15.6,9v18.1l15.6,9l15.6-9V311L383.5,302
	L383.5,302z"/>
<polygon class="st0" points="429.8,329.1 429.8,311 445.4,302 461.1,311 461.1,329.1 445.4,338 "/>
<path class="st2" d="M445.4,302.1l15.5,9v18l-15.5,9l-15.5-9v-18L445.4,302.1 M445.4,302l-15.6,9v18.1l15.6,9l15.6-9V311L445.4,302
	L445.4,302z"/>
<polygon class="st0" points="399.2,329.1 399.2,311 414.8,302 430.4,311 430.4,329.1 414.8,338 "/>
<path class="st2" d="M414.8,302.1l15.5,9v18l-15.5,9l-15.5-9v-18L414.8,302.1 M414.8,302l-15.6,9v18.1l15.6,9l15.6-9V311L414.8,302
	L414.8,302z"/>
<polygon class="st0" points="273.2,383.2 273.2,366.4 287.7,358.1 302.2,366.4 302.2,383.2 287.7,391.6 "/>
<path class="st1" d="M287.7,359.3l13.4,7.8v15.5l-13.4,7.8l-13.4-7.8v-15.5L287.7,359.3 M287.7,356.8l-15.6,9v18.1l15.6,9l15.6-9
	v-18.1L287.7,356.8L287.7,356.8z"/>
<polygon class="st0" points="383.5,245.4 383.5,228.7 398,220.2 412.5,228.7 412.5,245.5 399.6,255.5 "/>
<path class="st1" d="M398,221.6l13.4,7.8V245l-11.8,9.1l-15-9.3v-15.5L398,221.6 M398,218.9l-15.6,9v18.1l17.3,10.8l13.9-10.8V228
	L398,218.9L398,218.9z"/>
<polygon class="st0" points="336,494.3 336,476.2 351.6,467.2 367.2,476.2 367.2,494.3 351.5,503.2 "/>
<path class="st2" d="M351.5,467.3l15.5,9v18l-15.5,9l-15.5-9v-18L351.5,467.3 M351.5,467.2l-15.6,9v18.1l15.6,9l15.6-9v-18.2
	L351.5,467.2L351.5,467.2z"/>
<polygon class="st0" points="304.7,548 304.7,530 320.3,521 335.9,530 335.9,548.1 320.3,557.1 "/>
<path class="st2" d="M320.3,521l15.5,9v18l-15.5,9l-15.5-9v-18L320.3,521 M320.3,521l-15.6,9v18.1l15.6,9l15.6-9V530L320.3,521
	L320.3,521z"/>
<polygon class="st0" points="350.7,520.7 350.7,502.7 366.3,493.7 381.9,502.7 381.9,520.7 366.3,529.8 "/>
<path class="st2" d="M366.3,493.7l15.5,9v18l-15.5,9l-15.5-9v-18L366.3,493.7 M366.3,493.7l-15.6,9v18.1l15.6,9l15.6-9v-18.1
	L366.3,493.7L366.3,493.7z"/>
<polygon class="st0" points="320.3,520.7 320.4,502.7 336,493.7 351.5,502.7 351.5,520.7 335.9,529.8 "/>
<path class="st2" d="M335.9,493.7l15.5,9v18l-15.5,9l-15.5-9v-18L335.9,493.7 M335.9,493.7l-15.6,9v18.1l15.6,9l15.6-9v-18.1
	L335.9,493.7L335.9,493.7z"/>
<polygon class="st0" points="336,548 336,530 351.6,521 367.2,530 367.2,548.1 351.5,557.1 "/>
<path class="st2" d="M351.5,521l15.5,9v18l-15.5,9l-15.5-9v-18L351.5,521 M351.5,521l-15.6,9v18.1l15.6,9l15.6-9V530L351.5,521
	L351.5,521z"/>
<polygon class="st3" points="367.3,494.2 367.3,476.2 382.9,467.3 398.3,476.2 398.3,494.2 382.9,503.2 "/>
<path class="st2" d="M382.9,467.4l15.5,8.9v17.9l-15.5,8.9l-15.5-8.9v-17.9L382.9,467.4 M382.9,467.2l-15.6,9v18.1l15.6,9l15.6-9
	v-18.2L382.9,467.2L382.9,467.2z"/>
<polygon class="st0" points="508.5,31.6 508.6,13.6 524.1,4.5 539.8,13.6 539.8,31.6 524.1,40.6 "/>
<path class="st2" d="M524.1,4.6l15.5,9v18l-15.5,9l-15.5-9v-18L524.1,4.6 M524.1,4.5l-15.6,9v18.1l15.6,9l15.6-9V13.6L524.1,4.5
	L524.1,4.5z"/>
<polygon class="st0" points="524.1,58.1 524.2,40 539.8,31.1 555.4,40 555.4,58.1 539.8,67.1 "/>
<path class="st2" d="M539.8,31.1l15.5,9v18l-15.5,9l-15.5-9V40L539.8,31.1 M539.8,31l-15.6,9v18.1l15.6,9l15.6-9V40L539.8,31
	L539.8,31z"/>
<polygon class="st0" points="555.5,58.1 555.5,40 571.1,31.1 586.6,40 586.6,58.1 571,67.1 "/>
<path class="st2" d="M571,31.1l15.5,9v18L571,67l-15.5-9V40L571,31.1 M571,31l-15.6,9v18.1l15.6,9l15.6-9V40L571,31L571,31z"/>
<polygon class="st4" points="524.1,4.5 539.8,13.6 539.8,31 555.4,40 571,31 586.7,40 586.7,58.1 571,67.2 555.4,58.1 539.8,67.2 
	524.1,58.1 524.1,40 508.5,31.6 508.5,13.6 "/>
<polygon class="st0" points="429.6,165.7 429.6,147.7 445.2,138.7 460.8,147.7 460.8,165.8 445.2,174.8 "/>
<path class="st2" d="M445.2,138.7l15.5,9v18l-15.5,9l-15.5-9v-18L445.2,138.7 M445.2,138.7l-15.6,9v18.1l15.6,9l15.6-9v-18.1
	L445.2,138.7L445.2,138.7z"/>
<polygon class="st0" points="493,112 493,93.9 508.6,84.9 524.1,93.9 524.1,112 508.5,120.9 "/>
<path class="st2" d="M508.5,85l15.5,9v18l-15.5,9l-15.5-9v-18L508.5,85 M508.5,84.9l-15.6,9V112l15.6,9l15.6-9V93.9L508.5,84.9
	L508.5,84.9z"/>
<polygon class="st0" points="508,138.4 508,120.4 523.6,111.4 539.2,120.4 539.2,138.4 523.6,147.5 "/>
<path class="st2" d="M523.6,111.4l15.5,9v18l-15.5,9l-15.5-9v-18L523.6,111.4 M523.6,111.4l-15.6,9v18.1l15.6,9l15.6-9v-18.1
	L523.6,111.4L523.6,111.4z"/>
<polygon class="st0" points="476.6,138.4 476.6,120.4 492.2,111.4 507.8,120.4 507.8,138.4 492.2,147.5 "/>
<path class="st2" d="M492.2,111.4l15.5,9v18l-15.5,9l-15.5-9v-18L492.2,111.4 M492.2,111.4l-15.6,9v18.1l15.6,9l15.6-9v-18.1
	L492.2,111.4L492.2,111.4z"/>
<polygon class="st0" points="445.2,138.4 445.2,120.4 460.8,111.4 476.5,120.4 476.4,138.4 460.8,147.5 "/>
<path class="st2" d="M460.8,111.4l15.5,9v18l-15.5,9l-15.5-9v-18L460.8,111.4 M460.8,111.4l-15.6,9v18.1l15.6,9l15.6-9v-18.1
	L460.8,111.4L460.8,111.4z"/>
<polygon class="st0" points="460.8,165.7 460.8,147.7 476.5,138.7 492.1,147.7 492,165.8 476.5,174.8 "/>
<path class="st2" d="M476.5,138.7l15.5,9v18l-15.5,9l-15.5-9v-18L476.5,138.7 M476.5,138.7l-15.6,9v18.1l15.6,9l15.6-9v-18.1
	L476.5,138.7L476.5,138.7z"/>
<polygon class="st0" points="492.4,166.8 492.4,148.7 508,139.7 523.5,148.7 523.5,166.8 508,175.8 "/>
<path class="st2" d="M508,139.8l15.5,9v18l-15.5,9l-15.5-9v-18L508,139.8 M508,139.7l-15.6,9v18.1l15.6,9l15.6-9v-18.1L508,139.7
	L508,139.7z"/>
<polygon class="st5" points="414,192.5 414,174.6 429.6,165.6 445.1,174.6 445.1,192.5 429.6,201.5 "/>
<path class="st2" d="M429.6,165.7l15.5,8.9v17.9l-15.5,8.9l-15.5-8.9v-17.9L429.6,165.7 M429.6,165.5l-15.6,9v18.1l15.6,9l15.6-9
	v-18.1L429.6,165.5L429.6,165.5z"/>
<polygon class="st4" points="475.6,174.5 460.8,165.8 445.2,174.5 445.2,192.6 429.6,201.7 413.9,192.6 413.9,174.5 429.6,165.8 
	429.6,147.7 445.2,138.7 445.2,120.4 460.8,111.4 476.5,120.4 492.2,111.4 492.9,93.9 508.5,84.9 524.2,93.9 523.6,111.4 
	539.2,120.4 539.2,138.5 523.5,147.7 523.6,166.8 508,175.8 492.3,166.8 "/>
<path class="st4" d="M492.1,147.7"/>
<path class="st4" d="M506.8,174.5"/>
<polygon class="st0" points="397.1,220 397.1,202 412.8,192.9 428.3,202 428.3,220 412.8,229 "/>
<path class="st2" d="M412.8,193l15.5,9v18l-15.5,9l-15.5-9v-18L412.8,193 M412.8,192.9l-15.6,9v18.1l15.6,9l15.6-9V202L412.8,192.9
	L412.8,192.9z"/>
<polygon class="st0" points="367.2,220.2 367.2,202.2 382.9,193.1 398.4,202.2 398.4,220.3 382.9,229.3 "/>
<path class="st2" d="M382.9,193.2l15.5,9v18l-15.5,9l-15.5-9v-18L382.9,193.2 M382.9,193.1l-15.6,9v18.1l15.6,9l15.6-9v-18.1
	L382.9,193.1L382.9,193.1z"/>
<polygon class="st0" points="352.1,246 352.1,228 367.7,219 383.3,228 383.3,246.1 367.7,255 "/>
<path class="st2" d="M367.7,219l15.5,9v18l-15.5,9l-15.5-9v-18L367.7,219 M367.7,218.9l-15.6,9v18.1l15.6,9l15.6-9V228L367.7,218.9
	L367.7,218.9z"/>
<polygon class="st0" points="336.3,273.4 336.3,255.3 351.9,246.3 367.5,255.3 367.5,273.4 351.9,282.3 "/>
<path class="st2" d="M351.9,246.4l15.5,9v18l-15.5,9l-15.5-9v-18L351.9,246.4 M351.9,246.2l-15.6,9v18.1l15.6,9l15.6-9v-18.1
	L351.9,246.2L351.9,246.2z"/>
<polygon class="st0" points="351.9,300.7 351.9,282.7 367.5,273.7 383.2,282.7 383.1,300.8 367.5,309.8 "/>
<path class="st2" d="M367.5,273.7l15.5,9v18l-15.5,9l-15.5-9v-18L367.5,273.7 M367.5,273.7l-15.6,9v18.1l15.6,9l15.6-9v-18.1
	L367.5,273.7L367.5,273.7z"/>
<polygon class="st4" points="428.4,202 412.8,192.9 397.1,202 382.9,193.1 367.2,202.2 367.2,220.3 352.1,228 351.9,246.2 
	336.3,255.3 336.3,273.4 351.9,282.7 351.9,300.8 367.5,309.8 383.2,300.8 383.2,282.7 367.5,273.7 367.5,255.3 383.3,246.1 
	383.3,228 397.1,220 412.8,229 428.4,220 "/>
<polygon class="st4" points="445.4,302 461.1,311 461.1,329.1 445.4,338.1 429.8,329.1 414.8,338.1 399.2,329.1 383.5,338.1 
	367.9,329.1 367.9,311 383.5,302 399.2,311 414.8,302 429.8,311 "/>
<polygon class="st0" points="382.9,356.9 382.9,338.9 398.5,329.9 414,338.9 414,356.9 398.5,366 "/>
<path class="st2" d="M398.5,330l15.5,9v18l-15.5,9l-15.5-9v-18L398.5,330 M398.5,329.9l-15.6,9V357l15.6,9l15.6-9v-18.1L398.5,329.9
	L398.5,329.9z"/>
<polygon class="st0" points="414.9,356.9 415,338.9 430.6,329.9 446.2,338.9 446.2,356.9 430.6,366 "/>
<path class="st2" d="M430.6,330l15.5,9v18l-15.5,9l-15.5-9v-18L430.6,330 M430.6,329.9l-15.6,9V357l15.6,9l15.6-9v-18.1L430.6,329.9
	L430.6,329.9z"/>
<polygon class="st0" points="430,383.4 430,365.4 445.7,356.4 461.2,365.4 461.2,383.5 445.7,392.4 "/>
<path class="st2" d="M445.7,356.4l15.5,9v18l-15.5,9l-15.5-9v-18L445.7,356.4 M445.7,356.3l-15.6,9v18.1l15.6,9l15.6-9v-18.1
	L445.7,356.3L445.7,356.3z"/>
<polygon class="st0" points="399.3,383.4 399.4,365.4 414.9,356.4 430.6,365.4 430.6,383.5 414.9,392.4 "/>
<path class="st2" d="M414.9,356.4l15.5,9v18l-15.5,9l-15.5-9v-18L414.9,356.4 M414.9,356.3l-15.6,9v18.1l15.6,9l15.6-9v-18.1
	L414.9,356.3L414.9,356.3z"/>
<polygon class="st0" points="414.9,410.7 415,392.7 430.6,383.7 446.2,392.7 446.2,410.8 430.6,419.7 "/>
<path class="st2" d="M430.6,383.7l15.5,9v18l-15.5,9l-15.5-9v-18L430.6,383.7 M430.6,383.6l-15.6,9v18.1l15.6,9l15.6-9v-18.1
	L430.6,383.6L430.6,383.6z"/>
<polygon class="st4" points="399.3,365.4 399.3,383.5 414.9,392.7 414.9,410.8 430.6,419.8 446.2,410.8 446.2,392.7 461.3,383.5 
	461.3,365.4 445.7,356.3 446.2,338.9 430.6,329.9 414.9,338.9 398.5,329.9 382.9,338.9 382.9,356.9 "/>
<polygon class="st0" points="430.5,438.7 430.5,420.7 446.1,411.7 461.7,420.7 461.7,438.8 446.1,447.8 "/>
<path class="st2" d="M446.1,411.7l15.5,9v18l-15.5,9l-15.5-9v-18L446.1,411.7 M446.1,411.7l-15.6,9v18.1l15.6,9l15.6-9v-18.1
	L446.1,411.7L446.1,411.7z"/>
<polygon class="st0" points="460.8,438.7 460.8,420.7 476.5,411.7 492,420.7 492,438.8 476.4,447.8 "/>
<path class="st2" d="M476.4,411.7l15.5,9v18l-15.5,9l-15.5-9v-18L476.4,411.7 M476.4,411.7l-15.6,9v18.1l15.6,9l15.6-9v-18.1
	L476.4,411.7L476.4,411.7z"/>
<polygon class="st4" points="460.8,420.7 476.4,411.7 492,420.7 492,438.8 476.4,447.8 460.8,438.8 446.1,447.8 430.5,438.8 
	430.5,420.7 446.1,411.7 "/>
<polygon class="st0" points="398.5,439.5 398.3,421.5 413.8,412.3 429.5,421.2 429.7,439.2 414.2,448.4 "/>
<path class="st2" d="M413.7,412.4l15.7,8.8l0.2,17.9l-15.5,9.1l-15.7-8.8l-0.2-17.9L413.7,412.4 M413.7,412.3l-15.5,9.2l0.2,18
	l15.8,8.8l15.5-9.2l-0.2-18L413.7,412.3L413.7,412.3z"/>
<polygon class="st0" points="414.6,466.5 414.4,448.5 429.9,439.3 445.7,448.1 445.8,466.2 430.3,475.4 "/>
<path class="st2" d="M429.9,439.4l15.7,8.8l0.2,17.9l-15.5,9.1l-15.7-8.8l-0.2-17.9L429.9,439.4 M429.9,439.2l-15.5,9.3l0.2,18
	l15.8,8.8l15.5-9.2l-0.2-18L429.9,439.2L429.9,439.2z"/>
<polygon class="st4" points="445.7,448.1 445.9,466.2 430.3,475.4 414.6,466.5 414.3,448.5 398.4,439.5 398.3,421.5 413.7,412.3 
	429.5,421.2 429.9,439.2 "/>
<polygon class="st0" points="382.9,411.9 382.9,393.9 398.5,384.9 414,393.9 414,412 398.5,420.9 "/>
<path class="st2" d="M398.5,384.9l15.5,9v18l-15.5,9l-15.5-9v-17.9L398.5,384.9 M398.5,384.8l-15.6,9V412l15.6,9l15.6-9v-18.1
	L398.5,384.8L398.5,384.8z"/>
<polygon class="st0" points="367.2,439.1 367.2,421 382.9,412 398.4,421.1 398.4,439.1 382.9,448.1 "/>
<path class="st2" d="M382.9,412.1l15.5,9v18l-15.5,9l-15.5-9v-18L382.9,412.1 M382.9,412l-15.6,9v18.1l15.6,9l15.6-9V421L382.9,412
	L382.9,412z"/>
<polygon class="st0" points="382.3,465.6 382.3,447.5 397.9,438.5 413.5,447.5 413.4,465.6 397.9,474.6 "/>
<path class="st2" d="M397.9,438.6l15.5,9v18l-15.5,9l-15.5-9v-18L397.9,438.6 M397.9,438.5l-15.6,9v18.1l15.6,9l15.6-9v-18.1
	L397.9,438.5L397.9,438.5z"/>
<polygon class="st0" points="351.6,465.6 351.6,447.5 367.2,438.5 382.8,447.5 382.8,465.6 367.2,474.6 "/>
<path class="st2" d="M367.2,438.6l15.5,9v18l-15.5,9l-15.5-9v-18L367.2,438.6 M367.2,438.5l-15.6,9v18.1l15.6,9l15.6-9v-18.1
	L367.2,438.5L367.2,438.5z"/>
<polygon class="st0" points="352.4,411.9 352.5,393.9 368.1,384.9 383.7,393.9 383.7,412 368.1,420.9 "/>
<path class="st2" d="M368.1,384.9l15.5,9v18l-15.5,9l-15.5-9v-17.9L368.1,384.9 M368.1,384.8l-15.6,9V412l15.6,9l15.6-9v-18.1
	L368.1,384.8L368.1,384.8z"/>
<polygon class="st4" points="383.7,393.9 398.5,384.8 414.1,393.9 414.1,412 398.5,421 397.9,438.5 413.5,447.5 413.5,465.6 
	397.9,474.6 382.9,465.6 367.2,474.6 351.5,465.6 351.5,447.5 367.2,438.5 368.1,421 352.4,412 352.4,393.9 368.1,384.8 "/>
<polygon class="st0" points="368.1,274.6 368.1,256.5 383.8,247.5 399.3,256.5 399.3,274.6 383.7,283.5 "/>
<path class="st2" d="M383.7,247.6l15.5,9v18l-15.5,9l-15.5-9v-18L383.7,247.6 M383.7,247.5l-15.6,9v18.1l15.6,9l15.6-9v-18.1
	L383.7,247.5L383.7,247.5z"/>
<polygon class="st0" points="398.6,274.6 398.6,256.5 414.2,247.5 429.7,256.5 429.7,274.6 414.2,283.5 "/>
<path class="st2" d="M414.2,247.6l15.5,9v18l-15.5,9l-15.5-9v-18L414.2,247.6 M414.2,247.5l-15.6,9v18.1l15.6,9l15.6-9v-18.1
	L414.2,247.5L414.2,247.5z"/>
<polygon class="st0" points="382.9,300.7 382.9,282.7 398.5,273.7 414.1,282.7 414,300.8 398.5,309.8 "/>
<path class="st2" d="M398.5,273.7l15.5,9v18l-15.5,9l-15.5-9v-18L398.5,273.7 M398.5,273.7l-15.6,9v18.1l15.6,9l15.6-9v-18.1
	L398.5,273.7L398.5,273.7z"/>
<polygon class="st5" points="414.3,248.2 414.3,230.2 429.8,221.2 445.4,230.2 445.4,248.2 429.8,257.1 "/>
<path class="st2" d="M429.8,221.3l15.5,8.9v17.9l-15.5,8.9l-15.5-8.9v-17.9L429.8,221.3 M429.8,221.1l-15.6,9v18.1l15.6,9l15.6-9
	v-18.1L429.8,221.1L429.8,221.1z"/>
<polygon class="st4" points="383.7,247.5 398.6,256.5 414.2,246.4 414.2,230.2 429.8,221.1 445.4,230.2 445.4,248.2 429.8,257.2 
	429.8,274.6 414.2,283.6 414.1,300.8 398.5,309.8 382.9,300.8 382.9,282.7 368.1,274.6 368.1,256.5 "/>
<polygon class="st0" points="382.9,521 382.9,502.9 398.5,494 414,503 414,521 398.5,530 "/>
<path class="st2" d="M398.5,494l15.5,9v18l-15.5,9l-15.5-9v-18L398.5,494 M398.5,493.9l-15.6,9V521l15.6,9l15.6-9v-18.1L398.5,493.9
	L398.5,493.9z"/>
<polygon class="st3" points="398.6,493.7 398.6,475.7 414.1,466.8 429.7,475.7 429.7,493.7 414.1,502.7 "/>
<path class="st2" d="M414.1,466.9l15.5,8.9v17.9l-15.5,8.9l-15.5-8.9v-17.9L414.1,466.9 M414.1,466.7l-15.6,9v18.1l15.6,9l15.6-9
	v-18.1L414.1,466.7L414.1,466.7z"/>
<polygon class="st4" points="414.1,466.7 429.7,475.6 429.7,493.7 414.1,502.8 414.1,521 398.5,530.1 382.9,521 382.9,502.9 
	398.5,493.7 398.5,475.6 "/>
<text transform="matrix(1 0 0 1 417.9281 520.9517)" class="st6 st7">福建</text>
<text transform="matrix(1 0 0 1 383.7178 600.2847)" class="st6 st7">广东</text>
<text transform="matrix(1 0 0 1 251.7956 633.6182)" class="st6 st7">广西</text>
<text transform="matrix(1 0 0 1 350.2639 683.1157)" class="st6 st7">海南</text>
<text transform="matrix(1 0 0 1 163.748 544.9517)" class="st6 st7">云南</text>
<text transform="matrix(1 0 0 1 86.691 412.3315)" class="st6 st7">西藏</text>
<text transform="matrix(1 0 0 1 142.6903 457.3345)" class="st6 st7">青海</text>
<text transform="matrix(1 0 0 1 114.6908 322.8149)" class="st6 st7">新疆</text>
<text transform="matrix(1 0 0 1 328.5854 162.4541)" class="st6 st7">内蒙古</text>
<text transform="matrix(1 0 0 1 216.7843 327.7827)" class="st6 st7">山西</text>
<text transform="matrix(1 0 0 1 238.0979 246.2241)" class="st6 st7">陕西</text>
<text transform="matrix(1 0 0 1 492.8985 438.6455)" class="st6 st7">上海</text>
<text transform="matrix(1 0 0 1 449.8688 474.603)" class="st6 st7">杭州</text>
<text transform="matrix(1 0 0 1 461.7254 383.625)" class="st6 st7">苏州</text>
<text transform="matrix(1 0 0 1 461.7258 327.7827)" class="st6 st7">山东</text>
<text transform="matrix(1 0 0 1 555.4695 356.4141)" class="st6 st7">河南</text>
<text transform="matrix(1 0 0 1 430.5519 276.9976)" class="st6 st7">天津</text>
<text transform="matrix(1 0 0 1 460.7529 218.938)" class="st6 st7">河北</text>
<text transform="matrix(1 0 0 1 528.6053 168.9116)" class="st6 st7">辽宁</text>
<text transform="matrix(1 0 0 1 539.1723 96.917)" class="st6 st7">吉林</text>
<text transform="matrix(1 0 0 1 597.1039 59.2593)" class="st6 st7">黑龙江</text>
<polygon class="st4" points="367.2,476.2 382.9,467.2 398.5,476.2 398.5,494.3 382.9,503.3 382,520.7 367.2,530 367.2,548.1 
	351.5,557.1 335.9,548.1 320.3,557.1 304.7,548.1 304.7,530 320.3,520.7 320.3,502.7 335.9,493.7 335.9,476.2 351.5,467.2 "/>
<polygon class="st0" points="272.7,493.9 272.7,475.8 288.4,466.8 303.9,475.9 303.9,493.9 288.3,502.9 "/>
<path class="st2" d="M288.3,466.9l15.5,9v18l-15.5,9l-15.5-9v-18L288.3,466.9 M288.3,466.8l-15.6,9V494l15.6,9l15.6-9v-18.1
	L288.3,466.8L288.3,466.8z"/>
<polygon class="st0" points="304.8,493.9 304.8,475.8 320.4,466.8 336.1,475.9 336,493.9 320.4,502.9 "/>
<path class="st2" d="M320.4,466.9l15.5,9v18l-15.5,9l-15.5-9v-18L320.4,466.9 M320.4,466.8l-15.6,9V494l15.6,9l15.6-9v-18.1
	L320.4,466.8L320.4,466.8z"/>
<polygon class="st0" points="289.2,520.9 289.2,502.8 304.8,493.8 320.4,502.9 320.4,520.9 304.8,529.8 "/>
<path class="st2" d="M304.8,493.9l15.5,9v18l-15.5,9l-15.5-9v-18L304.8,493.9 M304.8,493.7l-15.6,9v18.1l15.6,9l15.6-9v-18.1
	L304.8,493.7L304.8,493.7z"/>
<polygon class="st4" points="320.4,466.8 336.1,475.8 336.1,493.9 320.4,502.8 320.4,520.9 304.8,529.9 289.2,520.9 289.2,502.8 
	272.7,493.9 272.7,475.8 288.3,466.8 304.8,475.8 "/>
<polygon class="st8" points="336,603.2 336,585.3 351.4,576.3 366.9,585.3 366.9,603.2 351.4,612.1 "/>
<path class="st2" d="M351.4,576.6l15.3,8.8V603l-15.3,8.8l-15.3-8.8v-17.6L351.4,576.6 M351.4,576.1l-15.6,9v18.1l15.6,9l15.6-9
	v-18.1L351.4,576.1L351.4,576.1z"/>
<polygon class="st0" points="351.8,576.6 351.8,558.6 367.4,549.5 382.9,558.6 382.9,576.6 367.4,585.6 "/>
<path class="st2" d="M367.4,549.6l15.5,9v18l-15.5,9l-15.5-9v-18L367.4,549.6 M367.4,549.5l-15.6,9v18.1l15.6,9l15.6-9v-18.1
	L367.4,549.5L367.4,549.5z"/>
<polygon class="st0" points="304.5,603.3 304.5,585.2 320.1,576.2 335.8,585.2 335.8,603.3 320.1,612.2 "/>
<path class="st2" d="M320.1,576.3l15.5,9v18l-15.5,9l-15.5-9v-18L320.1,576.3 M320.1,576.1l-15.6,9v18.1l15.6,9l15.6-9v-18.1
	L320.1,576.1L320.1,576.1z"/>
<polygon class="st0" points="320.1,576.6 320.2,558.6 335.8,549.5 351.4,558.6 351.4,576.6 335.8,585.6 "/>
<path class="st2" d="M335.8,549.6l15.5,9v18l-15.5,9l-15.5-9v-18L335.8,549.6 M335.8,549.5l-15.6,9v18.1l15.6,9l15.6-9v-18.1
	L335.8,549.5L335.8,549.5z"/>
<polygon class="st5" points="367.5,550 367.5,532.1 383,523 398.6,532.1 398.6,550 383,559 "/>
<path class="st2" d="M383,523.2l15.5,8.9V550l-15.5,8.9l-15.5-8.9v-17.9L383,523.2 M383,523l-15.6,9v18.1l15.6,9l15.6-9V532L383,523
	L383,523z"/>
<polygon class="st4" points="367.4,532 383,523 398.6,532 398.6,550.1 383,559.1 383,576.6 367.4,585.6 367,603.3 351.4,612.3 
	335.8,603.3 320.1,612.3 304.5,603.3 304.5,585.2 320.1,576.6 320.1,558.6 335.8,549.5 351.4,558.6 367.4,550.1 "/>
<polygon class="st0" points="288.3,576.6 288.3,558.6 303.9,549.5 319.5,558.6 319.5,576.6 303.9,585.6 "/>
<path class="st2" d="M303.9,549.6l15.5,9v18l-15.5,9l-15.5-9v-18L303.9,549.6 M303.9,549.5l-15.6,9v18.1l15.6,9l15.6-9v-18.1
	L303.9,549.5L303.9,549.5z"/>
<polygon class="st0" points="257.7,576.6 257.7,558.6 273.3,549.5 289,558.6 288.9,576.6 273.3,585.6 "/>
<path class="st2" d="M273.3,549.6l15.5,9v18l-15.5,9l-15.5-9v-18L273.3,549.6 M273.3,549.5l-15.6,9v18.1l15.6,9l15.6-9v-18.1
	L273.3,549.5L273.3,549.5z"/>
<polygon class="st0" points="272.4,603 272.4,585 288.1,576 303.7,585 303.7,603.1 288.1,612.1 "/>
<path class="st2" d="M288.1,576l15.5,9v18l-15.5,9l-15.5-9v-18L288.1,576 M288.1,576l-15.6,9v18.1l15.6,9l15.6-9V585L288.1,576
	L288.1,576z"/>
<polygon class="st0" points="242.1,603 242.1,585 257.7,576 273.3,585 273.3,603.1 257.7,612.1 "/>
<path class="st2" d="M257.7,576l15.5,9v18l-15.5,9l-15.5-9v-18L257.7,576 M257.7,576l-15.6,9v18.1l15.6,9l15.6-9V585L257.7,576
	L257.7,576z"/>
<polygon class="st4" points="303.9,549.5 319.5,558.6 319.5,576.6 303.7,585 303.7,603.1 288.1,612.1 273.3,603.1 257.7,612.1 
	242.1,603.1 242.1,585 257.7,576 257.7,558.6 273.3,549.5 289,558.6 "/>
<polygon class="st0" points="328.6,656.7 328.6,638.7 344.2,629.6 359.8,638.7 359.8,656.7 344.1,665.8 "/>
<path class="st2" d="M344.1,629.7l15.5,9v18l-15.5,9l-15.5-9v-18L344.1,629.7 M344.1,629.6l-15.6,9v18.1l15.6,9l15.6-9v-18.1
	L344.1,629.6L344.1,629.6z"/>
<polygon class="st0" points="297.3,656.7 297.3,638.7 313,629.6 328.5,638.7 328.5,656.7 312.9,665.8 "/>
<path class="st2" d="M312.9,629.7l15.5,9v18l-15.5,9l-15.5-9v-18L312.9,629.7 M312.9,629.6l-15.6,9v18.1l15.6,9l15.6-9v-18.1
	L312.9,629.6L312.9,629.6z"/>
<polygon class="st0" points="281,683.7 281.1,665.7 296.7,656.6 312.3,665.7 312.3,683.7 296.7,692.7 "/>
<path class="st2" d="M296.7,656.7l15.5,9v18l-15.5,9l-15.5-9v-18L296.7,656.7 M296.7,656.6l-15.6,9v18.1l15.6,9l15.6-9v-18.1
	L296.7,656.6L296.7,656.6z"/>
<polygon class="st0" points="313,683.2 313,665.2 328.6,656.1 344.1,665.2 344.1,683.2 328.5,692.2 "/>
<path class="st2" d="M328.5,656.2l15.5,9v18l-15.5,9l-15.5-9v-18L328.5,656.2 M328.5,656.1l-15.6,9v18.1l15.6,9l15.6-9v-18.1
	L328.5,656.1L328.5,656.1z"/>
<polygon class="st4" points="328.5,638.7 344.1,629.6 359.8,638.7 359.8,656.7 344.1,665.2 344.1,683.2 328.5,692.2 312.9,683.2 
	296.7,692.7 281,683.7 281,665.7 296.7,656.6 297.3,638.7 312.9,629.6 "/>
<polygon class="st0" points="336.6,328.4 336.6,310.4 352.2,301.3 367.8,310.4 367.8,328.4 352.2,337.4 "/>
<path class="st2" d="M352.2,301.4l15.5,9v18l-15.5,9l-15.5-9v-18L352.2,301.4 M352.2,301.3l-15.6,9v18.1l15.6,9l15.6-9v-18.1
	L352.2,301.3L352.2,301.3z"/>
<polygon class="st0" points="351.6,354.8 351.6,336.8 367.2,327.9 382.9,336.8 382.8,354.9 367.2,363.9 "/>
<path class="st2" d="M367.2,327.9l15.5,9v18l-15.5,9l-15.5-9v-18L367.2,327.9 M367.2,327.8l-15.6,9v18.1l15.6,9l15.6-9v-18.1
	L367.2,327.8L367.2,327.8z"/>
<polygon class="st0" points="367.2,382 367.2,364 382.9,355 398.5,364 398.5,382.1 382.9,391 "/>
<path class="st2" d="M382.9,355l15.5,9v18l-15.5,9l-15.5-9V364L382.9,355 M382.9,354.9l-15.6,9v18.1l15.6,9l15.6-9V364L382.9,354.9
	L382.9,354.9z"/>
<polygon class="st4" points="352.2,301.3 367.8,310.4 367.2,327.8 382.9,336.8 382.9,354.9 398.5,364 398.5,382.8 382.9,391.8 
	367.2,382.1 367.2,364 351.6,354.9 351.6,336.8 336.6,328.4 336.6,310.4 "/>
<polygon class="st8" points="318.7,247.1 318.7,229 334.3,220.1 349.9,229.1 349.9,247.1 334.3,256.1 "/>
<path class="st2" d="M334.3,220.1l15.5,9v18l-15.5,9l-15.5-9v-18L334.3,220.1 M334.3,220.1l-15.6,9v18.1l15.6,9l15.6-9v-18.1
	L334.3,220.1L334.3,220.1z"/>
<polygon class="st0" points="303.4,328.4 303.4,310.3 319,301.3 334.6,310.4 334.6,328.4 319,337.4 "/>
<path class="st2" d="M319,301.4l15.5,9v18l-15.5,9l-15.5-9v-18L319,301.4 M319,301.3l-15.6,9v18.1l15.6,9l15.6-9v-18.1L319,301.3
	L319,301.3z"/>
<polygon class="st0" points="288.4,247.1 288.4,229.1 304,220.1 319.5,229.2 319.5,247.2 303.9,256.2 "/>
<path class="st2" d="M303.9,220.1l15.5,9v18l-15.5,9l-15.5-9v-18L303.9,220.1 M303.9,220.1l-15.6,9v18.1l15.6,9l15.6-9v-18.1
	L303.9,220.1L303.9,220.1z"/>
<polygon class="st0" points="303.4,273.7 303.4,255.6 319,246.6 334.6,255.6 334.6,273.7 319,282.7 "/>
<path class="st2" d="M319,246.7l15.5,9v18l-15.5,9l-15.5-9v-18L319,246.7 M319,246.6l-15.6,9v18.1l15.6,9l15.6-9v-18.1L319,246.6
	L319,246.6z"/>
<polygon class="st0" points="272.7,273.7 272.7,255.6 288.4,246.6 303.9,255.6 303.9,273.7 288.3,282.7 "/>
<path class="st2" d="M288.3,246.7l15.5,9v18l-15.5,9l-15.5-9v-18L288.3,246.7 M288.3,246.6l-15.6,9v18.1l15.6,9l15.6-9v-18.1
	L288.3,246.6L288.3,246.6z"/>
<polygon class="st0" points="318.7,300.9 318.7,282.9 334.3,273.9 349.9,282.9 349.9,300.9 334.3,310 "/>
<path class="st2" d="M334.3,274l15.5,9v18l-15.5,9l-15.5-9v-18L334.3,274 M334.3,273.9l-15.6,9V301l15.6,9l15.6-9v-18.1L334.3,273.9
	L334.3,273.9z"/>
<polygon class="st0" points="288.4,300.9 288.4,282.9 304,273.9 319.5,282.9 319.5,300.9 303.9,310 "/>
<path class="st2" d="M303.9,274l15.5,9v18l-15.5,9l-15.5-9v-18L303.9,274 M303.9,273.9l-15.6,9V301l15.6,9l15.6-9v-18.1L303.9,273.9
	L303.9,273.9z"/>
<polygon class="st0" points="287.8,356 287.8,337.9 303.4,328.9 318.9,337.9 318.9,356 303.3,364.9 "/>
<path class="st2" d="M303.3,329l15.5,9v18l-15.5,9l-15.5-9v-18L303.3,329 M303.3,328.9l-15.6,9V356l15.6,9l15.6-9v-18.2L303.3,328.9
	L303.3,328.9z"/>
<polygon class="st5" points="319.1,355.9 319.1,337.9 334.6,329 350.1,337.9 350.1,355.9 334.6,364.9 "/>
<path class="st2" d="M334.6,329.1l15.5,8.9v17.9l-15.5,8.9l-15.5-8.9v-17.9L334.6,329.1 M334.6,328.9l-15.6,9V356l15.6,9l15.6-9
	v-18.2L334.6,328.9L334.6,328.9z"/>
<polygon class="st4" points="272.7,273.9 272.7,255.6 288.3,247.2 288.3,229.1 303.9,220.1 318.6,229 334.3,220.1 350,229 
	350,247.1 334.6,255.6 334.3,273.9 350,282.9 350,300.9 334.3,310 334.6,328.4 350.3,337.9 350.3,356 334.6,365 319,356 303.3,365 
	287.7,356 287.7,337.9 303.3,328.9 303.9,310 288.3,300.9 288.3,282.9 "/>
<polygon class="st0" points="335.8,438.4 335.8,420.4 351.4,411.4 366.9,420.4 366.9,438.4 351.3,447.5 "/>
<path class="st2" d="M351.3,411.4l15.5,9v18l-15.5,9l-15.5-9v-18L351.3,411.4 M351.3,411.4l-15.6,9v18.1l15.6,9l15.6-9v-18.1
	L351.3,411.4L351.3,411.4z"/>
<polygon class="st0" points="305,439.2 305,421.2 320.7,412.1 336.3,421.2 336.3,439.2 320.7,448.2 "/>
<path class="st2" d="M320.7,412.2l15.5,9v18l-15.5,9l-15.5-9v-18L320.7,412.2 M320.7,412.1l-15.6,9v18.1l15.6,9l15.6-9v-18.1
	L320.7,412.1L320.7,412.1z"/>
<polygon class="st0" points="320.1,465.6 320.1,447.6 335.8,438.6 351.3,447.6 351.3,465.7 335.7,474.7 "/>
<path class="st2" d="M335.7,438.6l15.5,9v18l-15.5,9l-15.5-9v-18L335.7,438.6 M335.7,438.6l-15.6,9v18.1l15.6,9l15.6-9v-18.1
	L335.7,438.6L335.7,438.6z"/>
<polygon class="st0" points="289.4,465.6 289.4,447.6 305,438.6 320.7,447.6 320.7,465.7 305,474.7 "/>
<path class="st2" d="M305,438.6l15.5,9v18l-15.5,9l-15.5-9v-18L305,438.6 M305,438.6l-15.6,9v18.1l15.6,9l15.6-9v-18.1L305,438.6
	L305,438.6z"/>
<polygon class="st4" points="351.3,447.6 351.3,465.7 335.7,474.8 320.7,465.7 305,474.8 289.4,465.7 289.4,447.6 305,438.6 
	305,421.2 320.7,412.1 336.3,421.2 351.3,411.4 366.9,420.4 366.9,438.4 "/>
<polygon class="st0" points="335.8,383.7 335.8,365.7 351.4,356.6 366.9,365.7 366.9,383.8 351.3,392.7 "/>
<path class="st2" d="M351.3,356.7l15.5,9v18l-15.5,9l-15.5-9v-18L351.3,356.7 M351.3,356.6l-15.6,9v18.1l15.6,9l15.6-9v-18.1
	L351.3,356.6L351.3,356.6z"/>
<polygon class="st0" points="320.1,410.9 320.1,392.9 335.8,383.8 351.3,392.9 351.3,410.9 335.7,420 "/>
<path class="st2" d="M335.7,383.9l15.5,9v18l-15.5,9l-15.5-9v-18L335.7,383.9 M335.7,383.8l-15.6,9V411l15.6,9l15.6-9v-18.1
	L335.7,383.8L335.7,383.8z"/>
<polygon class="st0" points="304.4,383.7 304.5,365.7 320.1,356.6 335.7,365.7 335.7,383.8 320.1,392.7 "/>
<path class="st2" d="M320.1,356.7l15.5,9v18l-15.5,9l-15.5-9v-18L320.1,356.7 M320.1,356.6l-15.6,9v18.1l15.6,9l15.6-9v-18.1
	L320.1,356.6L320.1,356.6z"/>
<polygon class="st4" points="351.3,356.6 366.9,365.7 366.9,383.8 351.3,392.9 351.3,410.9 335.7,420 320.1,410.9 320.1,392.7 
	304.4,383.8 304.4,365.7 320.1,356.6 335.7,365.7 "/>
<polygon class="st0" points="381.7,192.5 381.7,174.5 397.3,165.6 412.9,174.5 412.8,192.6 397.3,201.6 "/>
<path class="st2" d="M397.3,165.6l15.5,9v18l-15.5,9l-15.5-9v-18L397.3,165.6 M397.3,165.5l-15.6,9v18.1l15.6,9l15.6-9v-18.1
	L397.3,165.5L397.3,165.5z"/>
<polygon class="st0" points="350.8,192.5 350.8,174.5 366.4,165.6 382,174.5 382,192.6 366.4,201.6 "/>
<path class="st2" d="M366.4,165.6l15.5,9v18l-15.5,9l-15.5-9v-18L366.4,165.6 M366.4,165.5l-15.6,9v18.1l15.6,9l15.6-9v-18.1
	L366.4,165.5L366.4,165.5z"/>
<polygon class="st0" points="303.4,220 303.4,202 319,192.9 334.6,202 334.6,220 319,229 "/>
<path class="st2" d="M319,193l15.5,9v18l-15.5,9l-15.5-9v-18L319,193 M319,192.9l-15.6,9v18.1l15.6,9l15.6-9V202L319,192.9
	L319,192.9z"/>
<polygon class="st0" points="335.2,220 335.2,202 350.8,192.9 366.3,202 366.3,220 350.8,229 "/>
<path class="st2" d="M350.8,193l15.5,9v18l-15.5,9l-15.5-9v-18L350.8,193 M350.8,192.9l-15.6,9v18.1l15.6,9l15.6-9V202L350.8,192.9
	L350.8,192.9z"/>
<polygon class="st4" points="397.3,165.5 412.9,174.5 412.9,192.6 397.3,201.7 382,192.6 366.4,202 366.4,220 350.8,229 335.1,220 
	319,229 303.3,220 303.3,202 319,192.9 335.1,202 350.8,192.9 350.8,174.5 366.4,165.5 382,174.5 "/>
<polygon class="st0" points="255.8,301.5 255.8,283.5 271.5,274.4 287.1,283.5 287,301.5 271.5,310.5 "/>
<path class="st2" d="M271.5,274.5l15.5,9v18l-15.5,9l-15.5-9v-18L271.5,274.5 M271.5,274.4l-15.6,9v18.1l15.6,9l15.6-9v-18.1
	L271.5,274.4L271.5,274.4z"/>
<polygon class="st0" points="271.5,328.8 271.5,310.7 287.1,301.8 302.7,310.8 302.6,328.8 287.1,337.8 "/>
<path class="st2" d="M287.1,301.8l15.5,9v18l-15.5,9l-15.5-9v-18L287.1,301.8 M287.1,301.7l-15.6,9v18.1l15.6,9l15.6-9v-18.1
	L287.1,301.7L287.1,301.7z"/>
<polygon class="st5" points="255.9,355.2 255.9,337.3 271.5,328.3 287,337.3 287,355.2 271.5,364.2 "/>
<path class="st2" d="M271.5,328.4l15.5,8.9v17.9l-15.5,8.9l-15.5-8.9v-17.9L271.5,328.4 M271.5,328.2l-15.6,9v18.1l15.6,9l15.6-9
	v-18.1L271.5,328.2L271.5,328.2z"/>
<polygon class="st4" points="271.5,274.4 255.8,283.5 255.8,301.5 271.5,310.7 271.5,328.2 255.8,337.2 255.8,355.3 271.5,365.1 
	287.1,356 287.1,337.2 302.7,328.8 302.7,310.7 287.1,301.7 287.1,283.5 "/>
<polygon class="st0" points="257.6,522.3 257.6,504.2 273.3,495.2 288.9,504.3 288.8,522.3 273.3,531.3 "/>
<path class="st2" d="M273.3,495.3l15.5,9v18l-15.5,9l-15.5-9v-18L273.3,495.3 M273.3,495.2l-15.6,9v18.1l15.6,9l15.6-9v-18.1
	L273.3,495.2L273.3,495.2z"/>
<polygon class="st0" points="273.3,549 273.3,531 288.9,522 304.5,531 304.4,549.1 288.9,558 "/>
<path class="st2" d="M288.9,522l15.5,9v18l-15.5,9l-15.5-9v-18L288.9,522 M288.9,521.9l-15.6,9v18.1l15.6,9l15.6-9V531L288.9,521.9
	L288.9,521.9z"/>
<polygon class="st4" points="288.9,504.2 288.9,521.9 304.5,531 304.5,549.1 288.9,558.1 273.3,549.1 273.3,531 257.6,522.3 
	257.6,504.2 273.3,495.2 "/>
<polygon class="st0" points="257.3,465.6 257.4,447.5 273,438.5 288.6,447.5 288.6,465.6 273,474.6 "/>
<path class="st2" d="M273,438.6l15.5,9v18l-15.5,9l-15.5-9v-18L273,438.6 M273,438.5l-15.6,9v18.1l15.6,9l15.6-9v-18.1L273,438.5
	L273,438.5z"/>
<polygon class="st3" points="273,438.5 273,420.5 288.7,411.4 304.2,420.5 304.2,438.5 288.6,447.5 "/>
<path class="st2" d="M288.6,411.5l15.5,9v18l-15.5,9l-15.5-9v-18L288.6,411.5 M288.6,411.4l-15.6,9v18.1l15.6,9l15.6-9v-18.1
	L288.6,411.4L288.6,411.4z"/>
<polygon class="st4" points="288.6,411.4 304.2,420.5 304.2,438.5 288.6,447.5 288.6,465.6 273,474.6 257.3,465.6 257.3,447.5 
	273,438.5 273,420.5 "/>
<polygon class="st0" points="226.9,411 226.9,393 242.5,384 258.1,393 258.1,411.1 242.5,420 "/>
<path class="st2" d="M242.5,384l15.5,9v18l-15.5,9l-15.5-9v-18L242.5,384 M242.5,383.9l-15.6,9v18.1l15.6,9l15.6-9V393L242.5,383.9
	L242.5,383.9z"/>
<polygon class="st0" points="257.3,411 257.3,393 272.9,384 288.5,393 288.4,411.1 272.9,420 "/>
<path class="st2" d="M272.9,384l15.5,9v18l-15.5,9l-15.5-9v-18L272.9,384 M272.9,383.9l-15.6,9v18.1l15.6,9l15.6-9V393L272.9,383.9
	L272.9,383.9z"/>
<polygon class="st0" points="288.5,411 288.5,393 304.1,384 319.8,393 319.8,411.1 304.1,420 "/>
<path class="st2" d="M304.1,384l15.5,9v18l-15.5,9l-15.5-9v-18L304.1,384 M304.1,383.9l-15.6,9v18.1l15.6,9l15.6-9V393L304.1,383.9
	L304.1,383.9z"/>
<polygon class="st5" points="241.7,438.2 241.7,420.3 257.3,411.3 272.8,420.3 272.8,438.2 257.3,447.2 "/>
<path class="st2" d="M257.3,411.4l15.5,8.9v17.9l-15.5,8.9l-15.5-8.9v-17.9L257.3,411.4 M257.3,411.1l-15.6,9v18.1l15.6,9l15.6-9
	v-18.1L257.3,411.1L257.3,411.1z"/>
<polygon class="st5" points="211.4,438 211.4,420 226.8,411.1 242.4,420 242.4,438 226.8,447 "/>
<path class="st2" d="M226.8,411.1l15.5,8.9v17.9l-15.5,8.9l-15.5-8.9v-17.8L226.8,411.1 M226.8,411l-15.6,9v18l15.6,9l15.6-9V420
	L226.8,411L226.8,411z"/>
<path class="st9" d="M211.2,384.1l15.6,9v18.1l-15.6,9l-15.6-9v-18.1L211.2,384.1z"/>
<polygon class="st4" points="288.5,393 304.1,383.9 319.8,393 319.8,411.1 304.1,420.1 288.5,411.1 272.9,420.2 272.9,438.3 
	257.3,447.3 240.7,438.9 226.8,447.8 211.2,438.9 211.2,420.8 195.6,411.3 195.6,393.2 211.2,384.1 226.8,393.2 240.7,383.9 
	257.3,393 272.9,383.9 "/>
<polygon class="st0" points="210.2,549.7 210.2,531.6 225.8,522.6 241.4,531.6 241.4,549.7 225.8,558.7 "/>
<path class="st2" d="M225.8,522.7l15.5,9v18l-15.5,9l-15.5-9v-18L225.8,522.7 M225.8,522.6l-15.6,9v18.1l15.6,9l15.6-9v-18.1
	L225.8,522.6L225.8,522.6z"/>
<polygon class="st0" points="241.9,493.9 241.9,475.8 257.6,466.8 273.2,475.9 273.2,493.9 257.6,502.9 "/>
<path class="st2" d="M257.6,466.9l15.5,9v18l-15.5,9l-15.5-9v-18L257.6,466.9 M257.6,466.8l-15.6,9V494l15.6,9l15.6-9v-18.1
	L257.6,466.8L257.6,466.8z"/>
<polygon class="st0" points="226.7,522 226.7,503.9 242.3,494.9 257.9,504 257.9,522 242.3,531 "/>
<path class="st2" d="M242.3,495l15.5,9v18l-15.5,9l-15.5-9v-18L242.3,495 M242.3,494.9l-15.6,9v18.1l15.6,9l15.6-9V504L242.3,494.9
	L242.3,494.9z"/>
<polygon class="st0" points="242.3,549.7 242.3,531.6 257.9,522.6 273.6,531.6 273.5,549.7 257.9,558.7 "/>
<path class="st2" d="M257.9,522.7l15.5,9v18l-15.5,9l-15.5-9v-18L257.9,522.7 M257.9,522.6l-15.6,9v18.1l15.6,9l15.6-9v-18.1
	L257.9,522.6L257.9,522.6z"/>
<polygon class="st5" points="225.9,576.8 225.9,558.9 241.4,549.9 257,558.9 257,576.8 241.4,585.8 "/>
<path class="st2" d="M241.4,550l15.5,8.9v17.9l-15.5,8.9l-15.5-8.9v-17.9L241.4,550 M241.4,549.7l-15.6,9v18.1l15.6,9l15.6-9v-18.1
	L241.4,549.7L241.4,549.7z"/>
<polygon class="st4" points="257.6,466.8 273.2,475.8 273.2,493.9 257.9,503.9 257.9,522.6 273.6,531.6 273.6,549.7 257,558.8 
	257,576.9 241.4,585.9 225.8,576.9 225.8,558.8 210.2,549.7 210.2,531.6 226.7,522 226.7,503.9 242.3,494.9 241.9,475.8 "/>
<polygon class="st8" points="133.8,359.4 133.8,341.6 149.2,332.6 164.6,341.5 164.7,359.3 149.3,368.3 "/>
<path class="st2" d="M149.2,332.8l15.3,8.7l0.1,17.6l-15.3,8.9l-15.3-8.7l-0.1-17.6L149.2,332.8 M149.2,332.3l-15.6,9.1l0.1,18.1
	l15.7,9l15.6-9.1l-0.1-18.1L149.2,332.3L149.2,332.3z"/>
<polygon class="st0" points="149.5,386.5 149.4,368.4 164.9,359.4 180.6,368.4 180.6,386.4 165.1,395.4 "/>
<path class="st2" d="M164.9,359.5l15.6,8.9l0.1,17.9l-15.5,9l-15.6-8.9l-0.1-17.9L164.9,359.5 M164.9,359.4l-15.6,9.1l0.1,18.1
	l15.7,9l15.6-9.1l-0.1-18.1L164.9,359.4L164.9,359.4z"/>
<polygon class="st4" points="164.9,359.4 180.6,368.3 180.7,386.4 165.1,395.5 149.4,386.5 149.3,368.4 133.6,359.6 133.5,341.5 
	149.2,332.3 164.9,341.3 "/>
<line class="st10" x1="434.2" y1="211" x2="456.5" y2="211"/>
<line class="st10" x1="166" y1="434.1" x2="171.9" y2="420.1"/>
<line class="st10" x1="366.3" y1="345.9" x2="547.6" y2="345.9"/>
<text transform="matrix(1 0 0 1 555.4695 417.6016)" class="st6 st7">安徽</text>
<line class="st10" x1="366.3" y1="407.1" x2="547.6" y2="407.1"/>
<polygon class="st5" points="195.8,411.9 195.8,393.9 211.4,385 226.9,393.9 226.9,411.9 211.4,420.9 "/>
</svg>
